<svg xmlns="http://www.w3.org/2000/svg" viewBox="0 0 800 460"><defs><linearGradient id="b" x1="0" y1="0" x2="1" y2="1"><stop stop-color="#02040a"/><stop offset=".55" stop-color="#071a42"/><stop offset="1" stop-color="#20070d"/></linearGradient><radialGradient id="p"><stop stop-color="#e8d89a"/><stop offset=".45" stop-color="#8e69d8"/><stop offset="1" stop-color="#39205b"/></radialGradient><linearGradient id="g"><stop stop-color="#7d5916"/><stop offset=".5" stop-color="#ffe18a"/><stop offset="1" stop-color="#8d641a"/></linearGradient></defs><rect width="800" height="460" fill="url(#b)"/><circle cx="635" cy="115" r="85" fill="url(#p)"/><g stroke="#5cb6ff" stroke-width="3" opacity=".7"><path d="M70 110L230 210L120 240Z"/><path d="M520 250L690 185L650 310Z"/></g><g transform="translate(95 140)"><rect width="610" height="205" rx="26" fill="#07101f" stroke="url(#g)" stroke-width="5"/><g transform="translate(38 36)"><rect width="105" height="130" rx="14" fill="#0e2445" stroke="#4c89dc"/><rect x="115" width="105" height="130" rx="14" fill="#1d1743" stroke="#7d6dcc"/><rect x="230" width="105" height="130" rx="14" fill="#102c33" stroke="#4aa1b3"/><rect x="345" width="105" height="130" rx="14" fill="#33200c" stroke="#b6803c"/><rect x="460" width="105" height="130" rx="14" fill="#22132f" stroke="#9658b5"/><text x="52" y="80" text-anchor="middle" font-size="48">✦</text><text x="167" y="80" text-anchor="middle" font-size="48">🪐</text><text x="282" y="80" text-anchor="middle" font-size="48">🤖</text><text x="397" y="80" text-anchor="middle" font-size="48">⚡</text><text x="512" y="80" text-anchor="middle" font-size="48">◎</text></g></g><g fill="#dcecff" font-family="Georgia,serif" text-anchor="middle"><text x="400" y="62" font-size="40" font-weight="900">GALACTIC REBELLION</text><text x="400" y="440" font-size="20" letter-spacing="4" fill="#f6dc83">20 PAYLINES • FINAL ORBIT</text></g></svg>