<svg xmlns="http://www.w3.org/2000/svg" viewBox="0 0 800 460"><defs><linearGradient id="b" x1="0" y1="0" x2="1" y2="1"><stop stop-color="#07060d"/><stop offset=".55" stop-color="#251640"/><stop offset="1" stop-color="#06160d"/></linearGradient><radialGradient id="m"><stop stop-color="#dfe9ff"/><stop offset=".3" stop-color="#a8b9ff"/><stop offset="1" stop-color="#7a48ff" stop-opacity="0"/></radialGradient><linearGradient id="g"><stop stop-color="#8b6318"/><stop offset=".5" stop-color="#ffe38a"/><stop offset="1" stop-color="#8f6418"/></linearGradient></defs><rect width="800" height="460" fill="url(#b)"/><circle cx="610" cy="110" r="110" fill="url(#m)" opacity=".8"/><path d="M0 390 Q120 330 220 365 T430 350 T800 375 V460 H0Z" fill="#051009"/><path d="M120 365 L170 250 L215 305 L260 205 L320 365 Z" fill="#0d0c15" stroke="#46336b" stroke-width="4"/><g transform="translate(95 125)"><rect width="610" height="240" rx="25" fill="#0d0d13" stroke="url(#g)" stroke-width="5"/><g transform="translate(35 40)"><rect width="110" height="160" rx="15" fill="#21172f" stroke="#6e4ca0"/><rect x="120" width="110" height="160" rx="15" fill="#1c2f23" stroke="#4d8a62"/><rect x="240" width="110" height="160" rx="15" fill="#35201b" stroke="#9d5c43"/><rect x="360" width="110" height="160" rx="15" fill="#172337" stroke="#5274a9"/><rect x="480" width="95" height="160" rx="15" fill="#1d152b" stroke="#8b5fc7"/><text x="55" y="98" text-anchor="middle" font-size="56">🧛</text><text x="175" y="98" text-anchor="middle" font-size="56">🐺</text><text x="295" y="98" text-anchor="middle" font-size="56">🧟</text><text x="415" y="98" text-anchor="middle" font-size="56">🧪</text><text x="527" y="98" text-anchor="middle" font-size="48">🌙</text></g></g><g fill="#f6dd86" font-family="Georgia,serif" text-anchor="middle"><text x="400" y="58" font-size="40" font-weight="900">MIDNIGHT MONSTERS</text><text x="400" y="440" font-size="20" letter-spacing="4">20 PAYLINES • CRYPT FREE SPINS</text></g></svg>