<svg xmlns="http://www.w3.org/2000/svg" viewBox="0 0 1200 1600"><defs><linearGradient id="bg" x1="0" y1="0" x2="0" y2="1"><stop stop-color="#050505"/><stop offset=".32" stop-color="#170304"/><stop offset=".7" stop-color="#09090e"/><stop offset="1" stop-color="#020202"/></linearGradient><linearGradient id="cab" x1="0" y1="0" x2="1" y2="1"><stop stop-color="#2b0205"/><stop offset=".32" stop-color="#7b0c12"/><stop offset=".55" stop-color="#12070a"/><stop offset=".78" stop-color="#b20e16"/><stop offset="1" stop-color="#210306"/></linearGradient><linearGradient id="gold"><stop stop-color="#765013"/><stop offset=".25" stop-color="#ffd96d"/><stop offset=".5" stop-color="#a56a15"/><stop offset=".77" stop-color="#fff0a4"/><stop offset="1" stop-color="#6b450e"/></linearGradient><filter id="g"><feGaussianBlur stdDeviation="11" result="b"/><feMerge><feMergeNode in="b"/><feMergeNode in="SourceGraphic"/></feMerge></filter></defs><rect width="1200" height="1600" fill="url(#bg)"/><rect x="90" y="80" width="1020" height="1440" rx="80" fill="url(#cab)" stroke="url(#gold)" stroke-width="18"/><rect x="140" y="180" width="920" height="340" rx="34" fill="#070a12" stroke="#d5a84a" stroke-width="8"/><text x="600" y="300" fill="#fff0a0" font-family="Georgia,serif" font-size="74" font-weight="700" text-anchor="middle">GAMEDAY</text><text x="600" y="388" fill="#ff3a31" font-family="Georgia,serif" font-size="62" font-weight="700" text-anchor="middle" filter="url(#g)">VIDEO POKER</text><text x="600" y="442" fill="#f3d77e" font-family="Arial,sans-serif" font-size="24" font-weight="700" letter-spacing="8" text-anchor="middle">PLAY SMART • PLAY BOLD</text><rect x="150" y="560" width="900" height="360" rx="26" fill="#07111e" stroke="#3a77ff" stroke-width="7"/><g fill="#f8d96f" font-family="Arial,sans-serif" font-size="26" font-weight="700"><text x="190" y="625">ROYAL FLUSH</text><text x="190" y="680">STRAIGHT FLUSH</text><text x="190" y="735">FOUR OF A KIND</text><text x="190" y="790">FULL HOUSE</text><text x="190" y="845">FLUSH / STRAIGHT</text></g><g fill="#fff6c2" font-family="Arial,sans-serif" font-size="26" text-anchor="end"><text x="1000" y="625">800×</text><text x="1000" y="680">50×</text><text x="1000" y="735">25×</text><text x="1000" y="790">9×</text><text x="1000" y="845">6× / 4×</text></g><rect x="145" y="965" width="910" height="355" rx="30" fill="#03060a" stroke="url(#gold)" stroke-width="8"/><g fill="#fff" stroke="#d2d2d2" stroke-width="3"><rect x="185" y="1020" width="145" height="190" rx="15"/><rect x="350" y="1020" width="145" height="190" rx="15"/><rect x="515" y="1020" width="145" height="190" rx="15"/><rect x="680" y="1020" width="145" height="190" rx="15"/><rect x="845" y="1020" width="145" height="190" rx="15"/></g><g font-family="Georgia,serif" font-size="64" font-weight="700" text-anchor="middle"><text x="257" y="1135" fill="#111">A♠</text><text x="422" y="1135" fill="#b51525">K♥</text><text x="587" y="1135" fill="#111">Q♣</text><text x="752" y="1135" fill="#b51525">J♦</text><text x="917" y="1135" fill="#111">10♠</text></g><g fill="#121212" stroke="#b88725" stroke-width="4"><rect x="185" y="1230" width="145" height="50" rx="10"/><rect x="350" y="1230" width="145" height="50" rx="10"/><rect x="515" y="1230" width="145" height="50" rx="10"/><rect x="680" y="1230" width="145" height="50" rx="10"/><rect x="845" y="1230" width="145" height="50" rx="10"/></g><g fill="#f7e5a0" font-family="Arial,sans-serif" font-size="21" font-weight="700" text-anchor="middle"><text x="257" y="1264">HOLD</text><text x="422" y="1264">HOLD</text><text x="587" y="1264">HOLD</text><text x="752" y="1264">HOLD</text><text x="917" y="1264">HOLD</text></g><text x="600" y="1425" fill="#f6d86f" font-family="Georgia,serif" font-size="44" font-weight="700" text-anchor="middle">GAMEDAY PAYS</text></svg>